<svg width="132" height="135" viewBox="0 0 132 135" fill="none" xmlns="http://www.w3.org/2000/svg">
<g clip-path="url(#clip0_115_885)">
<path d="M78.7793 1.42662C89.9989 3.88402 99.7227 8.95352 108.373 16.4164C115.118 22.2359 120.462 29.1781 124.44 37.1252C127.978 44.1931 130.489 51.717 131.132 59.7504C131.436 63.5375 132.061 67.341 131.924 71.1135C131.588 80.3583 129.687 89.2776 125.971 97.7875C122.39 105.991 117.438 113.159 111.158 119.366C104.229 126.214 96.0432 131.024 87.1222 134.58C86.8517 134.688 86.4821 134.534 85.8879 134.474C88.7109 132.499 91.3267 130.751 93.8585 128.884C107.326 118.951 117.055 106.112 121.772 89.7039C123.215 84.685 123.642 79.3169 124.164 74.0701C125.149 64.1614 123.213 54.6399 119.894 45.3769C117.319 38.1922 113.611 31.7048 108.845 25.7782C103.714 19.3984 97.4714 14.4992 90.3789 10.8159C84.0109 7.50924 77.2287 5.54646 69.9977 4.89912C57.7035 3.79849 46.2943 6.73459 35.4246 12.1656C28.0741 15.8382 21.6414 20.9733 16.1843 27.2559C8.31055 36.3206 3.56272 46.98 1.31234 58.8533C1.16451 59.6331 1.0328 60.4183 0.938252 61.2065C0.844488 61.9885 0.807225 62.7772 0.745185 63.5632C0.559442 63.5806 0.37369 63.5979 0.187945 63.6152C0.124661 62.9224 -0.052301 62.2172 0.0150378 61.5382C1.15657 50.0197 4.21629 39.2056 10.7625 29.5641C16.7614 20.7289 24.2412 13.6501 33.3276 8.27572C38.9332 4.9601 44.9198 2.7015 51.1701 1.19305C53.8421 0.548144 56.631 0.268884 59.381 0.14161C63.1345 -0.0321232 66.9106 -0.0658965 70.6594 0.153371C73.3184 0.308891 75.9485 0.982054 78.7793 1.42662Z" fill="#42A0ED"/>
<path d="M58.0329 77.7964C58.3003 78.8813 58.6526 79.9529 58.8201 81.0537C59.3732 84.6921 61.8968 86.3245 64.9717 87.0421C66.586 87.4187 68.431 87.234 70.0817 86.8716C74.3342 85.9377 75.9888 82.7759 76.1117 78.1654C76.3203 70.3328 76.1558 62.4899 76.1896 54.6519C76.1926 53.9401 76.499 53.23 76.9218 52.6997C77.4845 53.0408 77.8138 53.3743 78.0917 53.3339C80.6096 52.9657 81.0199 54.2718 80.9758 56.5366C80.8468 63.1534 80.9048 69.775 80.9645 76.3936C80.9714 77.1623 81.4518 77.9261 81.7124 78.6921C81.3168 85.9519 77.0409 91.6797 69.3805 92.5421C63.3072 93.2259 58.37 91.5749 54.9536 86.3418C53.8366 84.6308 53.5055 82.3789 52.9961 80.1265C53.3397 79.0474 53.6388 78.217 53.6431 77.3848C53.6799 70.0863 53.6873 62.7879 53.6457 55.4899C53.6375 54.0284 54.0326 53.3046 55.5984 53.3685C57.2664 53.4365 57.1244 54.5684 57.1249 55.6839C57.1275 62.2452 57.095 68.8065 57.1669 75.3669C57.1755 76.18 57.7308 76.9869 58.0329 77.7964Z" fill="#1AE3EE"/>
<path d="M58.0094 77.5904C57.7307 76.9869 57.1755 76.18 57.1668 75.3669C57.095 68.8065 57.1274 62.2452 57.1248 55.684C57.1244 54.5684 57.2664 53.4365 55.5984 53.3685C54.0326 53.3046 53.6374 54.0284 53.6457 55.4899C53.6872 62.7879 53.6798 70.0863 53.6431 77.3848C53.6387 78.217 53.3397 79.0474 53.0272 79.9524C52.8571 71.4288 52.8372 62.8314 52.9255 53.921C53.1012 53.2624 53.1683 52.9169 53.2354 52.5719C54.5454 52.551 55.8559 52.5305 57.3655 52.6753C57.6805 53.17 57.7957 53.4986 57.9108 53.8277C57.9359 61.6799 57.961 69.5321 58.0094 77.5904Z" fill="#1BEEF9"/>
<path d="M81.7422 78.4861C81.4518 77.9261 80.9714 77.1623 80.9645 76.3936C80.9047 69.775 80.8467 63.1534 80.9757 56.5366C81.0198 54.2718 80.6096 52.9657 78.0916 53.3339C77.8138 53.3743 77.4844 53.0408 77.1096 52.7299C78.382 52.5563 79.7236 52.5332 81.2916 52.7148C81.582 53.0297 81.6457 53.1394 81.7093 53.2491C81.7301 61.5929 81.7508 69.9367 81.7422 78.4861Z" fill="#1CF3FE"/>
<path d="M57.9459 53.6754C57.7957 53.4986 57.6806 53.17 57.5598 52.7064C57.6966 52.8889 57.8385 53.206 57.9459 53.6754Z" fill="#1AE3EE"/>
</g>
<defs>
<clipPath id="clip0_115_885">
<rect width="132" height="135" fill="white"/>
</clipPath>
</defs>
</svg>
